<svg id="Layer_1" data-name="Layer 1" xmlns="http://www.w3.org/2000/svg" xmlns:xlink="http://www.w3.org/1999/xlink" viewBox="0 0 1080 1080"><defs><style>.cls-1{fill:#015ea1;}.cls-2{fill:#58b4ff;}.cls-3{fill:#112f4e;}.cls-4{fill:#2491ff;}.cls-5{fill:#0076d6;}.cls-6,.cls-8{fill:none;}.cls-7{fill:#cfe8ff;}.cls-8{stroke:#0076d6;stroke-miterlimit:10;stroke-width:1.18596px;}.cls-9{fill:#e8f5ff;}.cls-10{fill:#0b4778;}.cls-11{fill:url(#linear-gradient);}.cls-12{fill:#fff;}</style><linearGradient id="linear-gradient" x1="401.25235" y1="303.79145" x2="831.10734" y2="639.24691" gradientUnits="userSpaceOnUse"><stop offset="0.31851" stop-color="#fff" stop-opacity="0"/><stop offset="0.94804" stop-color="#58b4ff" stop-opacity="0.2"/></linearGradient></defs><polyline class="cls-1" points="249.363 -6.721 1085.919 -6.721 1085.919 1086.721 -5.919 1086.721 -5.919 -6.721 249.363 -6.721"/><path class="cls-2" d="M825.22586,564.43362c-1.951-15.8322-37.58389-22.69917-81.86123-22.69917-45.52761,0-82.91521,7.58892-82.91521,24.04707,0,.64674-1.18844,7.18922-1.16738,9.52451.0721,8.0231.19119,12.47819.384,16.9719,1.71853,40.014,16.93421,150.24426,29.85068,167.60258.35429,11.73289,23.13011,21.19975,51.18977,21.19975,15.9687,0,30.227-3.06655,39.61783-7.87094a10.24725,10.24725,0,0,0,1.065-.56843c5.90816-3.238,9.66142-7.20083,10.38188-11.51631,12.81331-17.04292,33.95961-127.85014,35.72053-168.84665C827.68455,587.78422,826.91684,568.14017,825.22586,564.43362Z"/><ellipse class="cls-3" cx="741.95666" cy="557.39934" rx="69.07149" ry="10.25739"/><path class="cls-4" d="M727.61837,476.80584c3.39487-3.51572,4.76026-8.609-4.1909-22.93853-17.99939-28.8143-58.72825-15.64809-64.33656-.08038-1.192,3.30874,2.72033-.258,4.9009,2.62067C675.61027,471.74607,718.86843,485.86735,727.61837,476.80584Z"/><path class="cls-5" d="M674.85017,150.39351c3.47367-1.9298.12867,1.92984,25.41617,5.08458,41.56255,5.18515,73.397,64.3549,70.78383,108.50693-.5553,9.38214-2.25623,38.1213-22.0405,50.86261-2.46405,1.58691-11.70334,8.084-22.46431,5.934-109.03764-21.78485-76.25467-143.78256-54.25346-161.66446C678.2058,154.31052,671.50784,152.25035,674.85017,150.39351Z"/><path class="cls-4" d="M756.8402,440.57431c-15.06739-2.45866-14.09725-37.4381-2.06095-61.41678,0,0,21.6938-47.37492,83.78621-36.27372,4.03723.72181,5.94629-.44568,5.44552.57209-2.56448,5.21244,1.297,10.47428-5.9554,26.57964C832.94992,381.37366,800.84971,447.75558,756.8402,440.57431Z"/><path class="cls-4" d="M757.06291,329.25871c9.56047,5.73291,32.20784-16.92734,70.36-55.10118,0,0,17.57645-17.58646,39.84238-51.28647,9.2963-14.07015,8.901-19.0735,8.901-19.0735-5.20668-7.40312-45.89161,8.69637-76.71782,33.06072-14.01,11.07321-36.35986,29.24317-43.65709,59.7636C754.349,302.65437,749.126,324.49937,757.06291,329.25871Z"/><path class="cls-5" d="M722.04292,349.37154c-7.66877,4.66593-16.6364-7.19348-63.33614-38.15885-25.52095-16.92228-45.3431-28.29979-58.111-53.258-6.179-12.0785-5.2-16.28343-3.82633-18.06492,4.56214-5.91645,45.75307-3.84738,73.04,10.11754,11.78394,6.0308,39.686,20.31047,51.66,51.44206C727.453,317.00638,731.97992,343.32553,722.04292,349.37154Z"/><path class="cls-4" d="M736.12086,336.77991q-4.4692-24.15832-10.39571-48.02252c-3.97044-15.897-8.56119-31.64236-13.66777-47.2265q-7.6714-23.37316-16.96486-46.20145-9.28439-22.81049-20.03791-45.01018,11.381,21.866,21.31583,44.46895,9.93663,22.5831,18.33091,45.83243c5.57212,15.494,10.63765,31.184,15.08677,47.05414q6.68731,23.80116,11.83815,48.01067Z"/><path class="cls-5" d="M739.61073,455.3511c6.06875-10.58759,12.45806-20.99175,19.31825-31.08285l5.23618-7.50444,5.45062-7.35043c.44667-.61755.92059-1.21538,1.39525-1.81254l1.41826-1.79526,2.8357-3.58916c.92857-1.20884,1.9281-2.36233,2.90866-3.53l2.94787-3.49686a249.57958,249.57958,0,0,1,25.69326-25.96939,211.18746,211.18746,0,0,1,29.53064-21.35365,210.59619,210.59619,0,0,0-28.7513,22.22554,247.823,247.823,0,0,0-24.6752,26.594l-2.81082,3.56018c-.93455,1.1882-1.88727,2.36119-2.76991,3.5903l-2.69591,3.64719-1.34756,1.82291c-.451.60618-.90117,1.21283-1.32447,1.83979l-5.16507,7.45371L761.85747,426.2c-6.47359,10.21294-12.46969,20.71923-18.14209,31.39435Z"/><path class="cls-5" d="M734.485,357.708c8.88633-13.09826,17.31948-26.584,26.12159-39.84847,8.78834-13.27169,17.9258-26.35538,27.86918-38.81967q3.71983-4.67949,7.6046-9.22508c2.579-3.03807,5.22957-6.01518,7.92276-8.95142l2.029-2.19375,2.07173-2.15915c1.3662-1.45378,2.80739-2.83242,4.21047-4.24787,2.86391-2.77205,5.76134-5.50718,8.74883-8.14007,5.94462-5.2995,12.12539-10.321,18.46729-15.121,6.3485-4.79042,12.86924-9.35341,19.60365-13.57278-6.62885,4.383-13.02808,9.09922-19.24585,14.03467-6.21071,4.94461-12.24982,10.10225-18.038,15.52267-11.66971,10.75015-21.937,22.88182-31.529,35.48874-9.57587,12.62733-18.33618,25.8494-26.76712,39.28609-8.44652,13.43167-16.53638,27.10624-25.16924,40.5299Z"/><path class="cls-4" d="M733.22859,373.72777a119.81172,119.81172,0,0,0-8.95913-21.38709A207.38466,207.38466,0,0,0,712.13764,332.29a281.18217,281.18217,0,0,0-29.76926-36.41026,276.87761,276.87761,0,0,0-35.389-31.12815,210.89282,210.89282,0,0,0-40.745-23.77336,211.47555,211.47555,0,0,1,41.426,22.82275,278.61621,278.61621,0,0,1,36.37168,30.435,284.08341,284.08341,0,0,1,30.98035,36.0433,211.14468,211.14468,0,0,1,12.85777,20.11545,124.04939,124.04939,0,0,1,9.83346,21.97149Z"/><path class="cls-5" d="M741.474,487.64456a53.90281,53.90281,0,0,0-6.6805-7.39578,97.1353,97.1353,0,0,0-7.81014-6.55482,129.5095,129.5095,0,0,0-17.34721-11.01842,119.33184,119.33184,0,0,0-18.9637-8.13232,83.603,83.603,0,0,0-20.27266-4.122,84.18538,84.18538,0,0,1,20.604,3.00052,121.07542,121.07542,0,0,1,19.66927,7.15741,132.41672,132.41672,0,0,1,18.34821,10.25917,100.91749,100.91749,0,0,1,8.49,6.35009,58.13262,58.13262,0,0,1,7.67686,7.61262Z"/><path class="cls-4" d="M733.80331,382.029c.33879,4.46914.63393,8.92513.82615,13.3838.19853,4.458.366,8.91871.4512,13.3834.0806,4.46508.08751,8.93194.1367,13.38132.0079,2.22518.07171,4.44572.11142,6.66172l.21651,6.6232q.24743,6.627.38028,13.27554c.18589,8.85993.40557,17.72017.86506,26.57547.45239,8.85589,1.01678,69.2516,1.66,78.1152q.28861,3.91248.61793,7.82745c1.50512.10174,3.01064.18629,4.51635.27173.03674-.493.078-.98587.11063-1.47895.16-2.22775.27182-4.4555.39786-6.68424.43836-8.914.62623-69.37231.546-78.28707-.07566-8.91515-.54306-17.82112-1.2485-26.71741-.356-4.44858-.73133-8.89618-1.1683-13.34714q-.32-3.336-.757-6.675c-.321-2.21392-.64084-4.42152-1.0229-6.62379-.73508-4.40533-3.70542-29.92875-1.77972-52.88228.55926-4.38241.99644-8.75553,1.3617-13.13695q.49753-6.57614,1.07941-13.15642l1.0956-13.20995c.35717-4.42014.70624-8.85707.89786-13.36018l-.73093-.161a130.85048,130.85048,0,0,0-7.22217,25.94638,127.76428,127.76428,0,0,0-2.24158,26.81935C733.0629,373.07174,733.44,377.56024,733.80331,382.029Z"/><ellipse class="cls-5" cx="284.52883" cy="634.81116" rx="271.11537" ry="281.06456"/><path class="cls-6" d="M855.807,577.35483l.55708-.95151a26.59127,26.59127,0,0,0,3.45364,1.87869C858.72726,578.01853,857.35078,577.6996,855.807,577.35483Z"/><path class="cls-6" d="M839.66618,611.67487l-4.78611,1.4189,2.13681-3.649A18.85171,18.85171,0,0,1,839.66618,611.67487Z"/><path class="cls-6" d="M284.85714,661.67828l11.21393-74.95571c9.05048,14.9147,24.62953,55.83911,38.06714,93.00933C308.41653,670.4411,284.85714,661.67828,284.85714,661.67828Z"/><path class="cls-7" d="M615.00362,835.97942c17.3829-4.62477,32.06148-3.90425,44.041-.98408,19.8411,4.83657,32.27284,15.71058,37.29117,18.35184,8.04867,4.23607,13.55574,8.04853,21.60441,10.16652,8.04809,2.11807,38.12389,7.20133,38.12389,7.20133s19.06224-16.097,28.382-19.90944c9.31917-3.81246,11.86077-1.69439,20.75663-.4236a21.19129,21.19129,0,0,1,9.45005,4.45365c-36.30905,34.46743-79.39047,76.67848-84.0046,80.26727-7.62478,5.93046-57.1867,22.8747-71.16575,24.1455-13.91362,1.26486-16.92369-3.76143-29.48283-3.80827,6.22687-12.2439,12.32751-35.38411,12.96218-42.36465.8472-9.31932,1.6944-11.43732,1.6944-11.43732,4.31011-13.7131-24.7164-58.224-29.09947-64.83081C615.20051,836.27106,615.00362,835.97942,615.00362,835.97942Z"/><path class="cls-7" d="M437.421,317.87949s2.09049-.46254,5.54645-1.10373c13.005-2.41289,45.41281-7.36506,59.12432.19986,17.35452,9.57512,77.79741,110.11339,79.59257,122.08223s46.0799,84.38027,55.05684,92.16c8.97636,7.77975,49.66616,34.59286,48.8485,36.49863-8.58953,12.3857-6.29689,30.12019-13.166,40.10177-7.88479-5.327-69.98044-46.1799-77.42223-46.80009-8.05966-.67159-16.79107,0-15.4476-5.37309,1.34289-5.37309,33.58157-23.50735,11.41777-62.46237-22.16438-38.955-51.045-72.53695-59.77579-81.93988-7.25937-7.81739-76.71626-67.15669-99.93689-86.94908A60.802,60.802,0,0,0,437.421,317.87949Z"/><path class="cls-8" d="M437.421,317.87949a60.802,60.802,0,0,1-6.162,6.41428c-.20731-.17669-.40825-.3481-.608-.51842Z"/><path class="cls-9" d="M198.47657,473.654c11.46757-66.96241,37.90673-98.031,63.64-114.189,0,0,35.67727,15.69074,43.686,24.53608,10.07372,11.12606,30.55123,43.75627,25.16576,65.89864-5.386,22.14238-23.37061,59.7742-23.37061,59.7742l-11.52663,77.04858-11.21393,74.95571s23.55939,8.76282,49.28107,18.05362c26.77851,9.67248,55.9,19.91732,63.226,21.44356,14.363,2.9922,44.88294,16.75633,79.59315,6.58287,34.709-10.17354,47.27687-28.12683,66.42654-28.72524,19.15026-.59848,38.64217-1.21528,38.64217-1.21528a49.37062,49.37062,0,0,0,11.672,2.25256c5.73465.3814,12.48733-.6852,16.71174.15961,8.97636,1.7953-4.56085,22.28273-28.99813,21.13731-13.1058-.61434-30.24779,2.80037-30.24779,2.80037s28.21752,9.0926,36.59569,9.69109c0,0,29.28362,2.66211,33.37889,2.45733,4.09585-.20478,29.488-2.66211,32.76449-1.63822s8.80552,3.27645,8.39611,5.32423,1.22882,7.372-6.96231,9.62456-34.6077,11.058-48.3279,10.44368c0,0,15.15343,1.63823,24.164,1.43345,9.01-.20478,38.908-3.48123,40.5462,5.32423s1.02381,9.41979-13.7202,13.51535-33.1739,7.372-33.1739,7.372,30.92127,1.22867,34.19771,4.50511,2.66205,10.64846-3.072,11.67235c-5.73349,1.02389-38.293,7.16723-44.23147,7.16723a184.73132,184.73132,0,0,1-24.164-2.86689c-13.03862-2.407-25.80217-5.93856-25.80217-5.93856l16.267,5.00522a89.58473,89.58473,0,0,1,9.84382,3.67341L598.81769,795.77s13.37159-.19841,17.20164,2.25256c5.11909,3.27644,7.16673,7.57678,4.70968,11.67234a34.42574,34.42574,0,0,1-10.85316,1.43345,97.593,97.593,0,0,1-25.18777-4.70989c-7.98613-2.8669-19.4537-6.96246-19.4537-6.96246s-30.71685-4.70989-39.31738-9.62456c-8.60111-4.91468-19.86369-11.46757-23.95954-12.901-4.09527-1.43345-32.9689-11.46757-38.08857-13.51535-5.11908-2.04778-41.97942-5.11945-49.35114-4.91467-5.24649.14571-31.95666.28889-54.60226-2.07478-9.17556-.95766-17.68692-2.3248-23.82809-4.27334-21.29691-6.75768-80.4774-22.32081-85.59707-23.75425s-22.52573-3.27645-25.59718-6.14334c-3.072-2.8669-19.04428-14.53925-20.8875-22.93514s-6.96231-23.3447-7.37172-44.84639c-.41-21.50177-3.072-70.85327-3.072-70.85327S193.01756,505.53,198.47657,473.654Z"/><path class="cls-8" d="M430.651,323.77535c.19978.17032.40072.34173.608.51842a18.59453,18.59453,0,0,1-5.16946,3.45386Z"/><path class="cls-9" d="M350.86732,341.08579s-40.7674-50.803-16.9341-100.97888c23.83329-50.17576,47.66717-43.27664,47.66717-81.53568l-6.89919-15.68s37.63167-5.64475,69.619,41.39506c11.31643,16.64181,12.05244,23.45877,14.42552,33.86872,4.33443,19.01475,3.86943,29.67067.62715,35.75023-5.01775,9.408-21.95186,63.97421-21.95186,63.97421l-6.77005,5.89586-4.56143,3.97228s55.05684,50.86755,58.64715,62.238c3.59089,11.37035,4.78785,8.37816-4.78728,16.75633-4.78959,4.19074-20.50936,11.0764-40.41879,15.11521-19.8938,4.03569-43.97031,5.229-65.50581-1.94949-19.39926-6.46646-30.0897-21.48779-42.489-33.51273a387.26416,387.26416,0,0,0-29.92235-26.03221l-1.27225-24.16866C319.61309,338.28078,350.86732,341.08579,350.86732,341.08579Z"/><path class="cls-8" d="M862.07841,578.96562a8.277,8.277,0,0,1-2.26074-.68361C861.7686,578.75338,862.78605,579.0443,862.07841,578.96562Z"/><path class="cls-7" d="M823.00193,628.27029a5.49436,5.49436,0,0,0,4.5817-2.71561l7.29644-12.46091,4.78611-1.4189a18.85171,18.85171,0,0,0-2.6493-2.23012A16.56781,16.56781,0,0,0,831.489,606.829c-9.99438-2.42288-21.034-7.12388-23.01737-10.29739-3.0286-4.84576,5.45148-9.08588,5.45148-9.08588-3.63432-1.21144-3.59436-6.64859-2.42288-9.99453,2.12-6.0572,22.71451-3.33146,26.65169-3.33146,2.343,0,11.33149,1.82237,17.65507,3.23505,1.54383.34477,2.92031.6637,4.01072.92718a8.277,8.277,0,0,0,2.26074.68361c.70764.07868-.30981-.21224-2.26074-.68361a26.59127,26.59127,0,0,1-3.45364-1.87869,55.49019,55.49019,0,0,1-4.8863-3.495c-3.0286-2.42295-11.81155-5.45155-16.96017-6.663a6.6723,6.6723,0,0,1-5.14862-6.36014c4.5429-12.41741,32.70947-9.086,32.70947-9.086l7.67111-4.28694a1.1929,1.1929,0,0,0-.18531-2.16527c-7.72785-2.74709-4.67377-10.277-3.85148-13.83963.90858-3.93718,12.72013-8.1773,16.05159-8.1773a18.739,18.739,0,0,1,5.5424,1.22983c4.6344,1.66747,10.31288,5.15238,11.72063,11.18758,2.1206,9.08588-8.48009,11.50883-10.60011,12.11455-1.0991.31408-2.96837,3.46414-6.36006,6.36014a50.10217,50.10217,0,0,1-7.87436,5.14869,82.46763,82.46763,0,0,1,7.5715,4.84576c4.24,3.02868.30286,4.84584.30286,11.81169s-8.78294,9.69167-8.78294,9.69167,3.33146,6.05728,3.93718,8.783-2.14666,1.76873-4.833,7.81348c-2.687,6.04476-6.71678,14.10443-27.53769,24.179-17.11768,8.28276-48.74369,5.21768-59.45787,3.86487Z"/><path class="cls-10" d="M557.74684,808.895c17.35453,1.19689,38.29994,28.72524,38.29994,28.72524l19.50987-.81289c4.38307,6.60682,33.40958,51.11771,29.09947,64.83081,0,0-.8472,2.118-1.6944,11.43732-.63467,6.98054-6.73531,30.12075-12.96218,42.36465-.05849-.00021-.11-.00419-.16967-.00419-7.3196,0-17.164,8.71142-24.36258,16.34351-7.89868,3.88456-15.97225,7.58388-20.11559,7.802,0,0-14.40293,15.24977-26.687,12.28451-12.28465-2.96519-30.49969-9.74292-39.39556-8.472-8.89586,1.2708-38.54778,8.04845-54.64511,3.81239-16.09676-4.236-78.79054-14.4025-97.42889-52.10338-18.63892-37.7008-53.35144-61.74568-16.50906-109.4515,7.7794-1.19689,87.97073-14.9611,112.507-19.7486C487.72883,801.11525,540.39174,807.69812,557.74684,808.895Z"/><path class="cls-7" d="M967.86693,912.22829c16.52064,5.50685,39.81829,15.67337,39.81829,24.99269s-10.58968,8.472-10.58968,8.472-5.50708,4.23606-10.59026,5.93053c-5.08319,1.69439-89.80411-5.08326-93.61679-6.35413-2.09338-.69787-10.06039-2.54463-16.82118-4.06871,21.9229-11.38838,50.74557-27.13146,78.717-43.1103C960.11244,905.90007,964.69414,911.17074,967.86693,912.22829Z"/><path class="cls-10" d="M864.50708,810.13953c-5.35245,3.01072-26.16236,22.20578-49.85436,44.69611a21.19129,21.19129,0,0,0-9.45005-4.45365c-8.89586-1.27079-11.43746-3.38886-20.75663.4236-9.31975,3.81246-28.382,19.90944-28.382,19.90944s-30.0758-5.08326-38.12389-7.20133c-8.04867-2.118-13.55574-5.93045-21.60441-10.16652-5.01833-2.64126-17.45007-13.51527-37.29117-18.35184l3.8165-.159a50.84387,50.84387,0,0,0,46.41542-35.81155,271.14887,271.14887,0,0,0,10.4953-48.17272c49.93312-7.83122,220.92458-34.403,242.2076-34.403,24.96193,0,73.99284-6.24033,93.60578,39.22509,19.61237,45.4655,10.69739,60.62067-4.45777,80.23318-7.21769,9.34075-50.63324,36.07119-96.34311,62.1831-22.41454-32.856-58.08313-110.82552-58.08313-110.82552S878.06225,802.5146,864.50708,810.13953Z"/><path class="cls-9" d="M560.78239,1011.77538s-5.93038-5.50685,8.472-13.1317c14.40294-7.62493,25.8404-14.40258,26.687-15.67338a133.69927,133.69927,0,0,1,9.5259-11.19084c7.19858-7.63209,17.043-16.34351,24.36258-16.34351.05965,0,.11118.004.16967.00419,12.55914.04684,15.56921,5.07313,29.48283,3.80827,13.97905-1.2708,63.541-18.215,71.16575-24.1455,4.61413-3.58879,47.69555-45.79984,84.0046-80.26727,23.692-22.49033,44.50191-41.68539,49.85436-44.69611,13.55517-7.62493,32.19409-22.87463,32.19409-22.87463s35.66859,77.96954,58.08313,110.82552c-27.97142,15.97884-56.79409,31.72192-78.717,43.1103-17.47382,9.07719-30.56571,15.38977-35.32866,16.83936-20.50416,6.24034-84.69081,30.31033-98.063,39.22509-13.37218,8.91483-32.98512,21.39558-48.13971,20.50408-15.15516-.8915-37.44231-1.783-52.59748,3.56592-15.15516,5.34884-32.98511,18.72108-43.6825,19.61258-10.698.89142-12.90428-5.87407-12.90428-5.87407s-14.82624,5.93046-19.48612,1.2708c0,0-8.89528,2.96526-8.472-8.89572,0,0-3.38879,3.38886-3.38879,0C554.00481,1027.44876,555.2759,1014.31705,560.78239,1011.77538Z"/><path class="cls-4" d="M330.96831,449.89979c5.38547-22.14237-15.092-54.77258-25.16576-65.89864-8.00871-8.84534-43.686-24.53608-43.686-24.53608s8.50962-3.667,24.2097-1.30583c4.47746.67332,9.71-.12031,15.2872,2.20348a387.26416,387.26416,0,0,1,29.92235,26.03221c12.39931,12.02494,23.08975,27.04627,42.489,33.51273,21.5355,7.17853,45.612,5.98518,65.50581,1.94949,19.90943-4.03881,35.6292-10.92447,40.41879-15.11521,9.57513-8.37817,8.37817-5.386,4.78728-16.75633-3.59031-11.37043-58.64715-62.238-58.64715-62.238a18.59453,18.59453,0,0,0,5.16946-3.45386c23.22063,19.79239,92.67752,79.13169,99.93689,86.94908,8.73083,9.40293,37.61141,42.98486,59.77579,81.93988,22.1638,38.955-10.07488,57.08928-11.41777,62.46237-1.34347,5.37309,7.38794,4.7015,15.4476,5.37309,7.44179.62019,64.85628,37.3198,72.74107,42.64678-5.2019,7.55848-17.38889,29.6096-12.3057,29.4623l37.3566-1.08281c17.00939,23.5549,33.73735,62.08082,26.9783,118.80759-2.1924,18.40268-6.8523,38.71631-14.78059,61.05752a33.83182,33.83182,0,0,1-30.48809,22.44167l-15.45854.6441c-11.97948-2.92017-26.65806-3.64069-44.041.98408,0,0,.19689.29164.553.82794l-19.50987.81289S575.10137,810.0919,557.74684,808.895c-17.3551-1.19689-70.018-7.77976-94.55374-2.9922-24.5363,4.7875-104.72763,18.55171-112.507,19.7486,0,0,9.373-49.54919,9.22942-69.22583,22.6456,2.36367,49.35577,2.22049,54.60226,2.07478,7.37172-.20478,44.23206,2.86689,49.35114,4.91467,5.11967,2.04778,33.9933,12.0819,38.08857,13.51535,4.09585,1.43345,15.35843,7.98634,23.95954,12.901,8.60053,4.91467,39.31738,9.62456,39.31738,9.62456s11.46757,4.09556,19.4537,6.96246a97.593,97.593,0,0,0,25.18777,4.70989,34.42574,34.42574,0,0,0,10.85316-1.43345c2.457-4.09556.40941-8.3959-4.70968-11.67234-3.83-2.451-17.20164-2.25256-17.20164-2.25256l-10.95393-4.83672a89.63746,89.63746,0,0,0-9.84595-3.67406l-16.26487-5.00457s12.76355,3.5316,25.80217,5.93856a184.73132,184.73132,0,0,0,24.164,2.86689c5.93849,0,38.498-6.14334,44.23147-7.16723,5.73408-1.02389,6.34848-8.3959,3.072-11.67235s-34.19771-4.50511-34.19771-4.50511,18.42988-3.27645,33.1739-7.372,15.35842-4.7099,13.7202-13.51535-31.53625-5.529-40.5462-5.32423c-9.01052.20478-24.16395-1.43345-24.16395-1.43345,13.7202.61434,40.13678-8.19112,48.3279-10.44368s6.5529-7.57678,6.96231-9.62456-5.11967-4.30034-8.39611-5.32423-28.66864,1.43344-32.76449,1.63822c-4.09527.20478-33.37889-2.45733-33.37889-2.45733-8.37817-.59849-36.59569-9.69109-36.59569-9.69109s17.142-3.41471,30.24779-2.80037c24.43728,1.14542,37.97449-19.342,28.99813-21.13731-4.22441-.84481-10.97709.22179-16.71174-.15961a49.37062,49.37062,0,0,1-11.672-2.25256s-19.49191.6168-38.64217,1.21528c-19.14967.59841-31.7175,18.5517-66.42654,28.72524-34.71021,10.17346-65.23017-3.59067-79.59315-6.58287-7.326-1.52624-36.44745-11.77108-63.226-21.44356-13.43761-37.17022-29.01666-78.09463-38.06714-93.00933L307.5977,509.674S325.58227,472.04217,330.96831,449.89979Z"/><path class="cls-5" d="M379.83315,224.993s24.71538-9.01777,33.06517-4.0079c0,0-1.002,5.00988-5.67785,5.00988a16.85918,16.85918,0,0,1-8.64795-2.81052Z"/><path class="cls-5" d="M421.30136,201.17239s-4.06525-4.82748-8.63865-5.33564-40.65249,8.63865-40.65249,8.63865Z"/><path class="cls-5" d="M416.36275,249.81687s-3.16,12.02841,2.75226,17.22713C419.115,267.044,410.519,264.04524,416.36275,249.81687Z"/><path class="cls-5" d="M425.02728,267.45174s.11334-.69207,2.54839-1.22323a46.92647,46.92647,0,0,1,9.47853-.77438c1.63076.0906,4.99167.51075,7.137-.55078a18.57911,18.57911,0,0,0,6.42194-5.91227l-2.1026,3.53418a11.1439,11.1439,0,0,1-8.94137,4.74123c-2.09268.028-6.63269-.85666-7.50832-.5283a27.07374,27.07374,0,0,1-5.60646,1.529C424.95006,268.35033,425.02728,267.45174,425.02728,267.45174Z"/><path class="cls-5" d="M400.75628,280.95091s34.81064-4.32781,38.38579-4.70414,7.15029-5.45681,6.774-6.0213-13.73609,3.95148-15.42958,3.95148-17.87574,1.88165-21.45089,2.06982-12.6071,4.516-12.6071,4.516,15.66224,11.42452,19.7574,13.54793c5.08047,2.63432,13.35976,4.13965,18.81656-1.69349s5.83314-14.11242,4.32781-15.24142c0,0-8.46745,10.53728-13.73609,10.72544-2.36763.08456-7.53731,1.41819-12.6071-.18816C406.77514,285.94481,400.75628,280.95091,400.75628,280.95091Z"/><path class="cls-7" d="M449.504,187.45218s-19.59189,23.127-17.29626,29.24872,20.6607,34.05189,18.74768,37.878.6279,6.8752-6.76425,10.3245l-2.41829,10.7188s-4.35842,14.47718-6.77048,16.995-.499,38.48278-20.01191,36.95235c0,0,12.626,7.26951,30.22584-19.13027S479.65085,220.527,462.051,199.48365,449.504,187.45218,449.504,187.45218Z"/><path class="cls-3" d="M244.87092,206.23826C250.51581,127.83853,298.183,78.91714,318.2534,68.88193c20.07042-10.03514,20.69757,3.136,26.34188,3.136,47.622,0,90.94374,21.32471,120.42251,98.47007,29.4782,77.1453-16.30754,136.72912-20.69756,144.25545a18.81327,18.81327,0,0,1-1.35274,2.03229c-3.456.64119-5.54645,1.10373-5.54645,1.10373s16.93411-54.56621,21.95186-63.97421c3.24228-6.07956,3.70728-16.73548-.62715-35.75023-2.37308-10.40995-3.10909-17.22691-14.42552-33.86872-31.98736-47.03981-69.619-41.39506-69.619-41.39506l6.89919,15.68c0,38.259-23.83388,31.35992-47.66717,81.53568-23.8333,50.17583,16.9341,100.97888,16.9341,100.97888s-31.25423-2.805-50.5261-4.89173c-4.83823-.52393-8.92308-1.00261-11.566-1.38024C275.604,332.93223,259.29644,290.91,259.29644,290.91L257.415,326.033s-29.47819,3.13595-33.8688-7.5264C219.15618,307.84428,239.2266,284.638,244.87092,206.23826Z"/><path class="cls-5" d="M439.28367,216.30918s12.10853-5.79957,17.45239-5.13159l.5307,1.5921-4.77629.53069S448.44623,222.06546,439.28367,216.30918Z"/><path class="cls-5" d="M442.64391,199.13977c1.52447-.25408,10.4172-1.52447,10.92536-3.04894s-4.06525-8.63865-4.06525-8.63865Z"/><path class="cls-5" d="M351.60766,302.53564a280.88936,280.88936,0,0,0,37.50891,19.12219c12.61081,5.242,26.45977,12.12057,40.45079,9.5611l-28.68329,2.94187,2.20641,43.39266Z"/><path class="cls-5" d="M307.5977,509.674c1.35276-3.41348-2.32458-41.65786-2.32458-41.65786l13.982,14.90592Z"/><path class="cls-5" d="M636.74122,531.21788l-7.12418,2.70806a111.3155,111.3155,0,0,0-27.2975,15.04472l-8.74263,6.56626,5.03419-4.85068a111.31605,111.31605,0,0,1,29.06772-20.1941l5.00034-2.40016Z"/><path class="cls-5" d="M609.26833,1028.36919c1.236,1.74164-8.28756-16.05715-11.91337-13.46729a66.69564,66.69564,0,0,1-7.76959,4.66176s-8.80554-6.73365-11.3954-4.66176-5.17973-1.55392-8.28757-1.03594a13.74153,13.74153,0,0,1-9.12-2.09058c-2.27539-1.53523,4.97623,5.19841,4.97623,5.19841a10.68853,10.68853,0,0,1,10.87743,3.10784s4.14378-7.25162,12.94932,5.6977C589.58537,1025.77933,597.87293,1012.312,609.26833,1028.36919Z"/><path class="cls-5" d="M618.07387,989.00326s.74593,20.40573,7.25161,25.38067c8.80554,6.73364,16.613,6.95124,16.613,6.95124l-19.20286,9.62389-13.98526,6.73364s8.28756-16.05715,7.76959-21.75485S618.07387,989.00326,618.07387,989.00326Z"/><path class="cls-5" d="M649.15223,987.96732s12.94932,20.71891,2.58986,29.52444l9.32351.518S657.43979,993.14705,649.15223,987.96732Z"/><polygon class="cls-5" points="756.064 870.715 778.638 872.579 764.523 864.372 756.064 870.715"/><path class="cls-5" d="M593.698,680.07037s-1.90877,8.71868,4.09083,9.57577,13.99908-.85709,13.99908-.85709,4.57112-7.42808.57139-8.85656S593.698,680.07037,593.698,680.07037Z"/><path class="cls-5" d="M662.299,720.00209s-7.08539-2.6435-7.94248-.07224-3.75356,8.25149.98017,9.6968l7.0193-3.12581Z"/><path class="cls-5" d="M672.08216,745.18712s-11.90753,1.41475-11.78964,4.71585-.94317,8.84223,2.24,9.078,11.20016-3.89059,11.20016-3.89059S674.67588,746.01239,672.08216,745.18712Z"/><path class="cls-5" d="M662.061,774.77911s-13.79388-.35369-13.79388,3.3011-.70738,6.6022,3.3011,6.4843,10.257-.47158,10.72857-2.82951S662.061,774.77911,662.061,774.77911Z"/><path class="cls-5" d="M611.27558,811.47372s-2.54673-5.26324,1.01869-6.62149,10.1869-1.18847,10.1869-1.18847.50935,3.905-.67912,5.77258S611.27558,811.47372,611.27558,811.47372Z"/><path class="cls-5" d="M869.10156,529.53536s.97558,8.53632-.48779,10.24358c0,0,11.707.97558,12.92643-.48779S884.71083,525.14525,869.10156,529.53536Z"/><path class="cls-5" d="M869.56421,544.34705l9.537,1.77316-17.02284,4.679S871.00244,545.50064,869.56421,544.34705Z"/><path class="cls-5" d="M837.63912,554.16874l-2.92674,9.99969s6.34127,4.14621,11.95085,2.43894S853.0045,555.38821,837.63912,554.16874Z"/><path class="cls-5" d="M819.347,576.11927s1.46337,5.85348-.97558,7.56074,7.80463,6.09738,11.95085,2.92674S830.81007,574.8998,819.347,576.11927Z"/><path class="cls-5" d="M816.90806,589.2896a20.54607,20.54607,0,0,1-3.65842,6.09737c-1.41131,1.55244,8.53632,5.36568,10.48747,3.90231s2.92674-5.85347,2.92674-5.85347Z"/><polyline class="cls-5" points="839.666 611.675 846.663 617.338 834.88 613.094 837.883 611.484"/><path class="cls-5" d="M593.26,561.45972s4.53824,1.95989-12.43293,4.89782c-17.3978,3.01179-56.53613,7.09435-74.97439,14.69347-36.42438,15.01191-98.55933,43.60963-100.59377,51.23878-4.06888,15.2583,104.889-30.32956,123.19891-5.91628,8.9413,11.92173-30.13459,15.32475-68.94609,25.88433-40.66654,11.06429-81.37923,29.01019-81.37923,29.01019a419.81987,419.81987,0,0,1,56.89011-28.63343c25.51084-10.38938,57.45106-17.99415,65.17874-20.72157,17.29273-6.10332-106.62187,9.04214-123.30951,11.75318-10.8583,1.764,44.416-24.38407,81.48962-49.052,16.26392-10.82163,30.14164-25.87753,35.03828-27.12641,7.44571-1.899,22.66154-2.82313,41.81989-3.76756,9.59983-.47323,34.974-11.684,44.05245-10.92747,2.44571.20381,1.05393.56829.26182,2.85232C578.06926,559.9261,593.26,561.45972,593.26,561.45972Z"/><path class="cls-3" d="M602.92418,838.53728s-4.95381,45.9997-7.78456,31.13826-.70769-27.59982-2.12307-24.06139-14.86144,37.50745-16.27681,19.81526,15.56913-26.18445,12.03069-27.59982-14.86388,22.99375-18.39988,14.15375c-1.41538-3.53843,10.61531-21.93832,10.61531-21.93832s-19.10757,7.78457-17.69219-.70768,24.76907-2.83075,24.76907-2.83075l7.984,11.11366Z"/><path class="cls-3" d="M896.70117,787.2649s43.79006-20.91177,42.37469-30.11171-26.89214-5.6615-26.89214-5.6615,20.02235-1.222,12.73838,6.36919c-7.3217,7.63047-13.2254,2.23745-13.93421,3.73537C907.2215,769.55573,896.70117,787.2649,896.70117,787.2649Z"/><path class="cls-7" d="M624.82486,767.71537s-41.10194-4.41041-44.78095-6.24991,7.97118,8.58435,33.11108,8.58435Z"/><polygon class="cls-7" points="621.854 738.179 586.296 738.399 588.052 740.155 620.757 743.008 607.009 740.07 621.854 738.179"/><path class="cls-5" d="M821.54889,593.53914s10.20676.34906,16.562,1.13716c10.18719,1.26329,23.62079,3.38918,24.53276,5.89708Z"/><polygon class="cls-5" points="862.078 550.799 874.193 558.371 888.427 546.862 875.601 545.78 862.078 550.799"/><polygon class="cls-11" points="602.921 179.89 421.493 600.87 704.47 573.551 923.225 451.33 602.921 179.89"/><path class="cls-3" d="M638.56639,650.6621a7.68831,7.68831,0,0,1,1.245-3.12277c3.52082-5.19379,91.06946-169.44955,103.99052-187.19176a15.91178,15.91178,0,0,1,13.04441-6.54349l166.37854-2.474a3.72791,3.72791,0,0,1,3.09114,5.60965L887.30672,523.56a18.739,18.739,0,0,0-5.5424-1.22983c-3.33146,0-15.143,4.24012-16.05159,8.1773-.82229,3.56258-3.87637,11.09245,3.85148,13.83954a1.19314,1.19314,0,0,1,.18531,2.16535l-7.67111,4.287s-28.16657-3.33146-32.70947,9.086a6.6723,6.6723,0,0,0,5.14862,6.36014c5.14862,1.21144,13.93157,4.24,16.96017,6.663a55.49019,55.49019,0,0,0,4.8863,3.495l-.55708.95151c-6.32358-1.41268-15.3121-3.23505-17.65507-3.23505-3.93718,0-24.53167-2.72574-26.65169,3.33146-1.17148,3.34594-1.21144,8.78309,2.42288,9.99453,0,0-8.48008,4.24012-5.45148,9.08588,1.98336,3.17351,13.023,7.87451,23.01737,10.29739a16.56781,16.56781,0,0,1,5.52792,2.61571l-2.13681,3.649L816.19739,645.918a10.49829,10.49829,0,0,1-8.5081,5.28712l-123.90814,7.2807-37.35661,1.08281A7.725,7.725,0,0,1,638.56639,650.6621Z"/><path class="cls-2" d="M304.8025,879.08546c-1.15058-9.33677-29.85786-13.38644-55.96966-13.38644-26.84913,0-48.89783,4.47543-48.89783,14.18134,0,.3814-.70086,4.23972-.68844,5.61692.04252,4.73149.11275,7.3588.22645,10.00888,1.01347,23.59756,9.98666,88.604,17.60393,98.84076.20893,6.91927,13.64059,12.50218,30.18829,12.50218,9.41727,0,25.51925-1.80844,31.05734-4.64174a6.04293,6.04293,0,0,0,.62808-.33523c3.48424-1.90957,5.69766-4.24657,6.12254-6.79155,7.55643-10.05076,20.0271-75.39743,21.06557-99.57442C306.25247,892.85608,305.79973,881.27133,304.8025,879.08546Z"/><path class="cls-12" d="M297.82779,877.92992c0,4.99372-26.2435,9.04193-49.12621,9.04193s-41.4328-4.04821-41.4328-9.04193,18.5501-9.04193,41.4328-9.04193S297.82779,872.9362,297.82779,877.92992Z"/></svg>